<?xml version="1.0" encoding="utf-8"?>
<!-- Generator: Adobe Illustrator 26.0.1, SVG Export Plug-In . SVG Version: 6.00 Build 0)  -->
<svg version="1.1"
	 id="Layer_1" xmlns:cc="http://web.resource.org/cc/" xmlns:dc="http://purl.org/dc/elements/1.1/" xmlns:inkscape="http://www.inkscape.org/namespaces/inkscape" xmlns:ns1="http://sozi.baierouge.fr" xmlns:rdf="http://www.w3.org/1999/02/22-rdf-syntax-ns#" xmlns:sodipodi="http://sodipodi.sourceforge.net/DTD/sodipodi-0.dtd" xmlns:svg="http://www.w3.org/2000/svg"
	 xmlns="http://www.w3.org/2000/svg" xmlns:xlink="http://www.w3.org/1999/xlink" x="0px" y="0px" viewBox="0 0 63 187.6"
	 style="enable-background:new 0 0 63 187.6;" xml:space="preserve">
<style type="text/css">
	.st0{fill:url(#SVGID_1_);}
	.st1{fill:#71BFEA;stroke:#000000;stroke-width:0.25;}
	.st2{fill:#00994B;stroke:#000000;stroke-width:0.25;}
	.st3{fill:#006EAF;stroke:#000000;stroke-width:0.25;}
	.st4{fill:#82C995;stroke:#000000;stroke-width:0.25;}
</style>
<linearGradient id="SVGID_1_" gradientUnits="userSpaceOnUse" x1="30.8809" y1="-1.071" x2="30.8809" y2="188.37">
	<stop  offset="0" style="stop-color:#A8A8A8"/>
	<stop  offset="1" style="stop-color:#474747"/>
</linearGradient>
<rect x="-3.5" y="-1.1" class="st0" width="68.7" height="189.4"/>
<g>
	<path class="st1" d="M20.2,181.4c0-14.2-20.1-13.8-20.1-28v6.1c0,14.2,20.1,13.8,20.1,28C20.2,187.6,20.2,181.4,20.2,181.4z"/>
	<path class="st2" d="M20.2,168c0-14.2-20.1-13.8-20.1-28v6.1c0,14.2,20.1,13.8,20.1,28C20.2,174.2,20.2,168,20.2,168z"/>
	<path class="st3" d="M20.2,131.6c0,14.2-20.1,13.8-20.1,28v-6.1c0-14.2,20.1-13.8,20.1-28V131.6z"/>
	<path class="st1" d="M20.2,125.4c0-14.2-20.1-13.8-20.1-28v6.1c0,14.2,20.1,13.8,20.1,28C20.2,131.6,20.2,125.4,20.2,125.4z"/>
	<path class="st2" d="M20.2,112c0-14.2-20.1-13.8-20.1-28v6.1c0,14.2,20.1,13.8,20.1,28V112L20.2,112z"/>
	<path class="st3" d="M20.2,75.6c0,14.2-20.1,13.8-20.1,28v-6.1c0-14.2,20.1-13.8,20.1-28V75.6L20.2,75.6z"/>
	<path class="st1" d="M20.2,69.4c0-14.2-20.1-13.8-20.1-28v6.1c0,14.2,20.1,13.8,20.1,28V69.4L20.2,69.4z"/>
	<path class="st2" d="M20.2,56c0-14.2-20.1-13.8-20.1-28v6.1c0,14.2,20.1,13.8,20.1,28V56L20.2,56z"/>
	<path class="st3" d="M20.2,19.6c0,14.2-20.1,13.8-20.1,28v-6.1c0-14.2,20.1-13.8,20.1-28V19.6L20.2,19.6z"/>
	<g>
		<path d="M13,170.3h6.2c0.5,0,0.8-0.3,0.8-0.7c0-0.4-0.4-0.7-0.8-0.7H13c-0.5,0-0.9,0.3-0.9,0.7C12.1,170,12.5,170.3,13,170.3z"/>
		<path d="M7.1,166.1h11c0.5,0,0.8-0.3,0.8-0.7c0-0.4-0.4-0.7-0.8-0.7h-11c-0.5,0-0.8,0.3-0.8,0.7C6.3,165.8,6.6,166.1,7.1,166.1z"
			/>
		<path d="M2.3,161.8h12.4c0.5,0,0.9-0.3,0.9-0.7c0-0.4-0.4-0.7-0.9-0.7H2.3c-0.5,0-0.8,0.3-0.8,0.7C1.4,161.5,1.8,161.8,2.3,161.8z
			"/>
		<path d="M1,157.6h8.1c0.5,0,0.9-0.3,0.9-0.7c0-0.4-0.4-0.7-0.9-0.7H1c-0.5,0-0.8,0.3-0.8,0.7C0.2,157.3,0.6,157.6,1,157.6z"/>
	</g>
	<g>
		<path d="M9.8,130.6h9.4c0.5,0,0.8-0.3,0.8-0.7c0-0.4-0.4-0.7-0.8-0.7H9.8c-0.5,0-0.9,0.3-0.9,0.7C8.9,130.3,9.3,130.6,9.8,130.6z"
			/>
		<path d="M4.8,134.9h13.3c0.5,0,0.8-0.3,0.8-0.7s-0.4-0.7-0.8-0.7H4.8c-0.5,0-0.8,0.3-0.8,0.7S4.3,134.9,4.8,134.9z"/>
		<path d="M2.3,139.1h12.4c0.5,0,0.9-0.3,0.9-0.7s-0.4-0.7-0.9-0.7H2.3c-0.5,0-0.8,0.3-0.8,0.7S1.8,139.1,2.3,139.1z"/>
		<path d="M1,143.4h8.1c0.5,0,0.9-0.3,0.9-0.7c0-0.4-0.4-0.7-0.9-0.7H1c-0.5,0-0.8,0.3-0.8,0.7C0.2,143.1,0.6,143.4,1,143.4z"/>
	</g>
	<g>
		<path d="M13,114.3h6.2c0.5,0,0.8-0.3,0.8-0.7c0-0.4-0.4-0.7-0.8-0.7H13c-0.5,0-0.9,0.3-0.9,0.7C12.1,114,12.5,114.3,13,114.3z"/>
		<path d="M7.1,110.1h11c0.5,0,0.8-0.3,0.8-0.7c0-0.4-0.4-0.7-0.8-0.7h-11c-0.5,0-0.8,0.3-0.8,0.7C6.3,109.8,6.6,110.1,7.1,110.1z"
			/>
		<path d="M2.3,105.8h12.4c0.5,0,0.9-0.3,0.9-0.7c0-0.4-0.4-0.7-0.9-0.7H2.3c-0.5,0-0.8,0.3-0.8,0.7C1.4,105.5,1.8,105.8,2.3,105.8z
			"/>
		<path d="M1,101.6h8.1c0.5,0,0.9-0.3,0.9-0.7c0-0.4-0.4-0.7-0.9-0.7H1c-0.5,0-0.8,0.3-0.8,0.7C0.2,101.3,0.6,101.6,1,101.6z"/>
	</g>
	<g>
		<path d="M9.8,74.6h9.4c0.5,0,0.8-0.3,0.8-0.7c0-0.4-0.4-0.7-0.8-0.7H9.8c-0.5,0-0.9,0.3-0.9,0.7S9.3,74.6,9.8,74.6L9.8,74.6z"/>
		<path d="M4.8,78.9h13.3c0.5,0,0.8-0.3,0.8-0.7c0-0.4-0.4-0.7-0.8-0.7H4.8c-0.5,0-0.8,0.3-0.8,0.7C3.9,78.6,4.3,78.9,4.8,78.9
			L4.8,78.9z"/>
		<path d="M2.3,83.1h12.4c0.5,0,0.9-0.3,0.9-0.7s-0.4-0.7-0.9-0.7H2.3c-0.5,0-0.8,0.3-0.8,0.7C1.4,82.8,1.8,83.1,2.3,83.1L2.3,83.1z
			"/>
		<path d="M1,87.4h8.1c0.5,0,0.9-0.3,0.9-0.7c0-0.4-0.4-0.7-0.9-0.7H1c-0.5,0-0.8,0.3-0.8,0.7C0.2,87.1,0.6,87.4,1,87.4L1,87.4z"/>
	</g>
	<g>
		<path d="M13,58.3h6.2c0.5,0,0.8-0.3,0.8-0.7c0-0.4-0.4-0.7-0.8-0.7H13c-0.5,0-0.9,0.3-0.9,0.7C12.1,58,12.5,58.3,13,58.3L13,58.3z
			"/>
		<path d="M7.1,54.1h11c0.5,0,0.8-0.3,0.8-0.7c0-0.4-0.4-0.7-0.8-0.7h-11c-0.5,0-0.8,0.3-0.8,0.7C6.3,53.8,6.6,54.1,7.1,54.1
			L7.1,54.1z"/>
		<path d="M2.3,49.8h12.4c0.5,0,0.9-0.3,0.9-0.7s-0.4-0.7-0.9-0.7H2.3c-0.5,0-0.8,0.3-0.8,0.7S1.8,49.8,2.3,49.8L2.3,49.8z"/>
		<path d="M1,45.6h8.1c0.5,0,0.9-0.3,0.9-0.7c0-0.4-0.4-0.7-0.9-0.7H1c-0.5,0-0.8,0.3-0.8,0.7C0.2,45.3,0.6,45.6,1,45.6L1,45.6z"/>
	</g>
	<g>
		<path d="M9.8,18.6h9.4c0.5,0,0.8-0.3,0.8-0.7c0-0.4-0.4-0.7-0.8-0.7H9.8c-0.5,0-0.9,0.3-0.9,0.7C8.9,18.3,9.3,18.6,9.8,18.6
			L9.8,18.6z"/>
		<path d="M4.8,22.9h13.3c0.5,0,0.8-0.3,0.8-0.7c0-0.4-0.4-0.7-0.8-0.7H4.8c-0.5,0-0.8,0.3-0.8,0.7C3.9,22.6,4.3,22.9,4.8,22.9
			L4.8,22.9z"/>
		<path d="M2.3,27.1h12.4c0.5,0,0.9-0.3,0.9-0.7c0-0.4-0.4-0.7-0.9-0.7H2.3c-0.5,0-0.8,0.3-0.8,0.7C1.4,26.8,1.8,27.1,2.3,27.1
			L2.3,27.1z"/>
		<path d="M1,31.4h8.1c0.5,0,0.9-0.3,0.9-0.7c0-0.4-0.4-0.7-0.9-0.7H1c-0.5,0-0.8,0.3-0.8,0.7C0.2,31.1,0.6,31.4,1,31.4L1,31.4z"/>
	</g>
	<path class="st4" d="M20.2,118.2c0,14.2-20.1,13.8-20.1,28V140c0-14.2,20.1-13.8,20.1-28V118.2z"/>
	<path class="st4" d="M20.2,62.2c0,14.2-20.1,13.8-20.1,28V84c0-14.2,20.1-13.8,20.1-28V62.2L20.2,62.2z"/>
	<path class="st4" d="M20.2,6.1c0,14.2-20.1,13.8-20.1,28V28c0-14.2,20.1-13.8,20.1-28V6.1L20.2,6.1z"/>
</g>
<g>
	<path class="st1" d="M62.9,181.4c0-14.2-20.1-13.8-20.1-28v6.1c0,14.2,20.1,13.8,20.1,28C62.9,187.6,62.9,181.4,62.9,181.4z"/>
	<path class="st2" d="M62.9,168c0-14.2-20.1-13.8-20.1-28v6.1c0,14.2,20.1,13.8,20.1,28C62.9,174.2,62.9,168,62.9,168z"/>
	<path class="st3" d="M62.9,131.6c0,14.2-20.1,13.8-20.1,28v-6.1c0-14.2,20.1-13.8,20.1-28V131.6z"/>
	<path class="st1" d="M62.9,125.4c0-14.2-20.1-13.8-20.1-28v6.1c0,14.2,20.1,13.8,20.1,28C62.9,131.6,62.9,125.4,62.9,125.4z"/>
	<path class="st2" d="M62.9,112c0-14.2-20.1-13.8-20.1-28v6.1c0,14.2,20.1,13.8,20.1,28V112L62.9,112z"/>
	<path class="st3" d="M62.9,75.6c0,14.2-20.1,13.8-20.1,28v-6.1c0-14.2,20.1-13.8,20.1-28V75.6L62.9,75.6z"/>
	<path class="st1" d="M62.9,69.4c0-14.2-20.1-13.8-20.1-28v6.1c0,14.2,20.1,13.8,20.1,28V69.4L62.9,69.4z"/>
	<path class="st2" d="M62.9,56c0-14.2-20.1-13.8-20.1-28v6.1c0,14.2,20.1,13.8,20.1,28V56L62.9,56z"/>
	<path class="st3" d="M62.9,19.6c0,14.2-20.1,13.8-20.1,28v-6.1c0-14.2,20.1-13.8,20.1-28V19.6L62.9,19.6z"/>
	<g>
		<path d="M55.6,170.3h6.2c0.5,0,0.8-0.3,0.8-0.7c0-0.4-0.4-0.7-0.8-0.7h-6.2c-0.5,0-0.8,0.3-0.8,0.7
			C54.8,170,55.2,170.3,55.6,170.3z"/>
		<path d="M49.8,166.1h11c0.5,0,0.8-0.3,0.8-0.7c0-0.4-0.4-0.7-0.8-0.7h-11c-0.5,0-0.8,0.3-0.8,0.7
			C48.9,165.8,49.3,166.1,49.8,166.1z"/>
		<path d="M45,161.8h12.4c0.5,0,0.9-0.3,0.9-0.7c0-0.4-0.4-0.7-0.9-0.7H45c-0.5,0-0.8,0.3-0.8,0.7C44.1,161.5,44.5,161.8,45,161.8z"
			/>
		<path d="M43.7,157.6h8.1c0.5,0,0.9-0.3,0.9-0.7c0-0.4-0.4-0.7-0.9-0.7h-8.1c-0.5,0-0.8,0.3-0.8,0.7
			C42.9,157.3,43.2,157.6,43.7,157.6z"/>
	</g>
	<g>
		<path d="M52.4,130.6h9.4c0.5,0,0.8-0.3,0.8-0.7c0-0.4-0.4-0.7-0.8-0.7h-9.4c-0.5,0-0.8,0.3-0.8,0.7
			C51.6,130.3,52,130.6,52.4,130.6z"/>
		<path d="M47.5,134.9h13.3c0.5,0,0.8-0.3,0.8-0.7s-0.4-0.7-0.8-0.7H47.5c-0.5,0-0.8,0.3-0.8,0.7S47,134.9,47.5,134.9z"/>
		<path d="M45,139.1h12.4c0.5,0,0.9-0.3,0.9-0.7s-0.4-0.7-0.9-0.7H45c-0.5,0-0.8,0.3-0.8,0.7S44.5,139.1,45,139.1z"/>
		<path d="M43.7,143.4h8.1c0.5,0,0.9-0.3,0.9-0.7c0-0.4-0.4-0.7-0.9-0.7h-8.1c-0.5,0-0.8,0.3-0.8,0.7
			C42.9,143.1,43.2,143.4,43.7,143.4z"/>
	</g>
	<g>
		<path d="M55.6,114.3h6.2c0.5,0,0.8-0.3,0.8-0.7c0-0.4-0.4-0.7-0.8-0.7h-6.2c-0.5,0-0.8,0.3-0.8,0.7
			C54.8,114,55.2,114.3,55.6,114.3z"/>
		<path d="M49.8,110.1h11c0.5,0,0.8-0.3,0.8-0.7c0-0.4-0.4-0.7-0.8-0.7h-11c-0.5,0-0.8,0.3-0.8,0.7
			C48.9,109.8,49.3,110.1,49.8,110.1z"/>
		<path d="M45,105.8h12.4c0.5,0,0.9-0.3,0.9-0.7c0-0.4-0.4-0.7-0.9-0.7H45c-0.5,0-0.8,0.3-0.8,0.7C44.1,105.5,44.5,105.8,45,105.8z"
			/>
		<path d="M43.7,101.6h8.1c0.5,0,0.9-0.3,0.9-0.7c0-0.4-0.4-0.7-0.9-0.7h-8.1c-0.5,0-0.8,0.3-0.8,0.7
			C42.9,101.3,43.2,101.6,43.7,101.6z"/>
	</g>
	<g>
		<path d="M52.4,74.6h9.4c0.5,0,0.8-0.3,0.8-0.7c0-0.4-0.4-0.7-0.8-0.7h-9.4c-0.5,0-0.8,0.3-0.8,0.7S52,74.6,52.4,74.6L52.4,74.6z"
			/>
		<path d="M47.5,78.9h13.3c0.5,0,0.8-0.3,0.8-0.7c0-0.4-0.4-0.7-0.8-0.7H47.5c-0.5,0-0.8,0.3-0.8,0.7C46.6,78.6,47,78.9,47.5,78.9
			L47.5,78.9z"/>
		<path d="M45,83.1h12.4c0.5,0,0.9-0.3,0.9-0.7s-0.4-0.7-0.9-0.7H45c-0.5,0-0.8,0.3-0.8,0.7C44.1,82.8,44.5,83.1,45,83.1L45,83.1z"
			/>
		<path d="M43.7,87.4h8.1c0.5,0,0.9-0.3,0.9-0.7c0-0.4-0.4-0.7-0.9-0.7h-8.1c-0.5,0-0.8,0.3-0.8,0.7C42.9,87.1,43.2,87.4,43.7,87.4
			L43.7,87.4z"/>
	</g>
	<g>
		<path d="M55.6,58.3h6.2c0.5,0,0.8-0.3,0.8-0.7c0-0.4-0.4-0.7-0.8-0.7h-6.2c-0.5,0-0.8,0.3-0.8,0.7C54.8,58,55.2,58.3,55.6,58.3
			L55.6,58.3z"/>
		<path d="M49.8,54.1h11c0.5,0,0.8-0.3,0.8-0.7c0-0.4-0.4-0.7-0.8-0.7h-11c-0.5,0-0.8,0.3-0.8,0.7C48.9,53.8,49.3,54.1,49.8,54.1
			L49.8,54.1z"/>
		<path d="M45,49.8h12.4c0.5,0,0.9-0.3,0.9-0.7s-0.4-0.7-0.9-0.7H45c-0.5,0-0.8,0.3-0.8,0.7S44.5,49.8,45,49.8L45,49.8z"/>
		<path d="M43.7,45.6h8.1c0.5,0,0.9-0.3,0.9-0.7c0-0.4-0.4-0.7-0.9-0.7h-8.1c-0.5,0-0.8,0.3-0.8,0.7C42.9,45.3,43.2,45.6,43.7,45.6
			L43.7,45.6z"/>
	</g>
	<g>
		<path d="M52.4,18.6h9.4c0.5,0,0.8-0.3,0.8-0.7c0-0.4-0.4-0.7-0.8-0.7h-9.4c-0.5,0-0.8,0.3-0.8,0.7C51.6,18.3,52,18.6,52.4,18.6
			L52.4,18.6z"/>
		<path d="M47.5,22.9h13.3c0.5,0,0.8-0.3,0.8-0.7c0-0.4-0.4-0.7-0.8-0.7H47.5c-0.5,0-0.8,0.3-0.8,0.7C46.6,22.6,47,22.9,47.5,22.9
			L47.5,22.9z"/>
		<path d="M45,27.1h12.4c0.5,0,0.9-0.3,0.9-0.7c0-0.4-0.4-0.7-0.9-0.7H45c-0.5,0-0.8,0.3-0.8,0.7C44.1,26.8,44.5,27.1,45,27.1
			L45,27.1z"/>
		<path d="M43.7,31.4h8.1c0.5,0,0.9-0.3,0.9-0.7c0-0.4-0.4-0.7-0.9-0.7h-8.1c-0.5,0-0.8,0.3-0.8,0.7C42.9,31.1,43.2,31.4,43.7,31.4
			L43.7,31.4z"/>
	</g>
	<path class="st4" d="M62.9,118.2c0,14.2-20.1,13.8-20.1,28V140c0-14.2,20.1-13.8,20.1-28V118.2z"/>
	<path class="st4" d="M62.9,62.2c0,14.2-20.1,13.8-20.1,28V84c0-14.2,20.1-13.8,20.1-28V62.2L62.9,62.2z"/>
	<path class="st4" d="M62.9,6.1c0,14.2-20.1,13.8-20.1,28V28c0-14.2,20.1-13.8,20.1-28V6.1L62.9,6.1z"/>
</g>
</svg>
