<?xml version="1.0" encoding="utf-8"?>
<!-- Generator: Adobe Illustrator 26.0.1, SVG Export Plug-In . SVG Version: 6.00 Build 0)  -->
<svg version="1.1"
	 id="Layer_1" xmlns:cc="http://web.resource.org/cc/" xmlns:dc="http://purl.org/dc/elements/1.1/" xmlns:inkscape="http://www.inkscape.org/namespaces/inkscape" xmlns:ns1="http://sozi.baierouge.fr" xmlns:rdf="http://www.w3.org/1999/02/22-rdf-syntax-ns#" xmlns:sodipodi="http://sodipodi.sourceforge.net/DTD/sodipodi-0.dtd" xmlns:svg="http://www.w3.org/2000/svg"
	 xmlns="http://www.w3.org/2000/svg" xmlns:xlink="http://www.w3.org/1999/xlink" x="0px" y="0px" viewBox="0 0 78.2 119.8"
	 style="enable-background:new 0 0 78.2 119.8;" xml:space="preserve">
<style type="text/css">
	.st0{fill:url(#SVGID_1_);}
	.st1{fill:#71BFEA;stroke:#000000;stroke-width:0.25;}
	.st2{fill:#00994B;stroke:#000000;stroke-width:0.25;}
	.st3{fill:#006EAF;stroke:#000000;stroke-width:0.25;}
	.st4{fill:#82C995;stroke:#000000;stroke-width:0.25;}
</style>
<linearGradient id="SVGID_1_" gradientUnits="userSpaceOnUse" x1="38.1651" y1="-0.4842" x2="38.1651" y2="202.6343">
	<stop  offset="0" style="stop-color:#A8A8A8"/>
	<stop  offset="1" style="stop-color:#474747"/>
</linearGradient>
<rect x="-8" y="-0.5" class="st0" width="92.3" height="203.1"/>
<path class="st1" d="M28.1,193.9c0-14.2-20.1-13.8-20.1-28v6.1c0,14.2,20.1,13.8,20.1,28C28.1,200.1,28.1,193.9,28.1,193.9z"/>
<path class="st2" d="M28.1,180.5c0-14.2-20.1-13.8-20.1-28v6.1c0,14.2,20.1,13.8,20.1,28C28.1,186.6,28.1,180.5,28.1,180.5z"/>
<path class="st3" d="M28.1,144.1c0,14.2-20.1,13.8-20.1,28v-6.1c0-14.2,20.1-13.8,20.1-28V144.1z"/>
<path class="st1" d="M28.1,137.9c0-14.2-20.1-13.8-20.1-28v6.1c0,14.2,20.1,13.8,20.1,28C28.1,144.1,28.1,137.9,28.1,137.9z"/>
<path class="st2" d="M28.1,124.5c0-14.2-20.1-13.8-20.1-28v6.1c0,14.2,20.1,13.8,20.1,28V124.5L28.1,124.5z"/>
<g>
	<path d="M20.9,182.8h6.2c0.5,0,0.8-0.3,0.8-0.7c0-0.4-0.4-0.7-0.8-0.7h-6.2c-0.5,0-0.9,0.3-0.9,0.7C20,182.5,20.4,182.8,20.9,182.8
		z"/>
	<path d="M15,178.6h11c0.5,0,0.8-0.3,0.8-0.7c0-0.4-0.4-0.7-0.8-0.7H15c-0.5,0-0.8,0.3-0.8,0.7C14.2,178.3,14.5,178.6,15,178.6z"/>
	<path d="M10.2,174.3h12.4c0.5,0,0.9-0.3,0.9-0.7c0-0.4-0.4-0.7-0.9-0.7H10.2c-0.5,0-0.8,0.3-0.8,0.7C9.3,174,9.7,174.3,10.2,174.3z
		"/>
	<path d="M8.9,170.1h8.1c0.5,0,0.9-0.3,0.9-0.7c0-0.4-0.4-0.7-0.9-0.7H8.9c-0.5,0-0.8,0.3-0.8,0.7C8.1,169.8,8.5,170.1,8.9,170.1z"
		/>
</g>
<g>
	<path d="M17.7,143.1h9.4c0.5,0,0.8-0.3,0.8-0.7c0-0.4-0.4-0.7-0.8-0.7h-9.4c-0.5,0-0.9,0.3-0.9,0.7
		C16.8,142.8,17.2,143.1,17.7,143.1z"/>
	<path d="M12.7,147.4H26c0.5,0,0.8-0.3,0.8-0.7c0-0.4-0.4-0.7-0.8-0.7H12.7c-0.5,0-0.8,0.3-0.8,0.7
		C11.8,147.1,12.2,147.4,12.7,147.4z"/>
	<path d="M10.2,151.6h12.4c0.5,0,0.9-0.3,0.9-0.7s-0.4-0.7-0.9-0.7H10.2c-0.5,0-0.8,0.3-0.8,0.7C9.3,151.3,9.7,151.6,10.2,151.6z"/>
	<path d="M8.9,155.8h8.1c0.5,0,0.9-0.3,0.9-0.7c0-0.4-0.4-0.7-0.9-0.7H8.9c-0.5,0-0.8,0.3-0.8,0.7C8.1,155.5,8.5,155.8,8.9,155.8z"
		/>
</g>
<g>
	<path d="M20.9,126.8h6.2c0.5,0,0.8-0.3,0.8-0.7c0-0.4-0.4-0.7-0.8-0.7h-6.2c-0.5,0-0.9,0.3-0.9,0.7C20,126.5,20.4,126.8,20.9,126.8
		z"/>
	<path d="M15,122.6h11c0.5,0,0.8-0.3,0.8-0.7c0-0.4-0.4-0.7-0.8-0.7H15c-0.5,0-0.8,0.3-0.8,0.7C14.2,122.2,14.5,122.6,15,122.6z"/>
	<path d="M10.2,118.3h12.4c0.5,0,0.9-0.3,0.9-0.7c0-0.4-0.4-0.7-0.9-0.7H10.2c-0.5,0-0.8,0.3-0.8,0.7C9.3,118,9.7,118.3,10.2,118.3z
		"/>
	<path d="M8.9,114.1h8.1c0.5,0,0.9-0.3,0.9-0.7c0-0.4-0.4-0.7-0.9-0.7H8.9c-0.5,0-0.8,0.3-0.8,0.7C8.1,113.8,8.5,114.1,8.9,114.1z"
		/>
</g>
<g>
	<path d="M17.7,87.1h9.4c0.5,0,0.8-0.3,0.8-0.7c0-0.4-0.4-0.7-0.8-0.7h-9.4c-0.5,0-0.9,0.3-0.9,0.7S17.2,87.1,17.7,87.1L17.7,87.1z"
		/>
	<path d="M12.7,91.4H26c0.5,0,0.8-0.3,0.8-0.7c0-0.4-0.4-0.7-0.8-0.7H12.7c-0.5,0-0.8,0.3-0.8,0.7C11.8,91,12.2,91.3,12.7,91.4
		L12.7,91.4z"/>
	<path d="M10.2,95.6h12.4c0.5,0,0.9-0.3,0.9-0.7s-0.4-0.7-0.9-0.7H10.2c-0.5,0-0.8,0.3-0.8,0.7C9.3,95.3,9.7,95.6,10.2,95.6
		L10.2,95.6z"/>
	<path d="M8.9,99.8h8.1c0.5,0,0.9-0.3,0.9-0.7c0-0.4-0.4-0.7-0.9-0.7H8.9c-0.5,0-0.8,0.3-0.8,0.7C8.1,99.5,8.5,99.8,8.9,99.8
		L8.9,99.8z"/>
</g>
<path class="st4" d="M28.1,130.6c0,14.2-20.1,13.8-20.1,28v-6.1c0-14.2,20.1-13.8,20.1-28V130.6z"/>
<g>
	<g>
		<g>
			<path class="st3" d="M22.3,88.2c2,14-17.9,17.7-13.4,33.8c-0.7-2.3-1.3-4.5-2-6.8C3.2,99,23.2,96.1,21.7,82
				C21.9,84.1,22.1,86.2,22.3,88.2C22.3,88.2,22.3,88.2,22.3,88.2z"/>
			<path class="st1" d="M21.8,82C21.2,67.9,1,68,2.3,51.5c-0.3,2.3-0.5,4.7-0.6,7C1,75,21.2,74.2,22.3,88.2
				C22.1,86.2,21.9,84.1,21.8,82C21.8,82,21.8,82,21.8,82z"/>
			<path class="st3" d="M26.4,31.9C23.2,45.7,3.4,42,1.7,58.5c0.2-2.3,0.4-4.7,0.7-7c2.3-16.4,22-11.9,25.8-25.6
				C27.5,27.9,26.9,29.9,26.4,31.9C26.4,31.9,26.4,31.9,26.4,31.9z"/>
		</g>
		<g>
			<path d="M14.1,70.8c2.1,0,4.2,0,6.2,0c0.5,0,0.8-0.3,0.9-0.7c0-0.4-0.4-0.7-0.8-0.7c-2.1,0-4.2,0-6.2-0.1c-0.5,0-0.9,0.3-0.9,0.7
				C13.2,70.4,13.6,70.8,14.1,70.8C14.1,70.8,14.1,70.8,14.1,70.8z"/>
			<path d="M8.3,66.1c3.7,0.1,7.3,0.2,11,0.3c0.5,0,0.9-0.3,0.9-0.7c0-0.4-0.4-0.7-0.8-0.7c-3.7-0.1-7.3-0.3-11-0.4
				c-0.5,0-0.9,0.3-0.9,0.7C7.5,65.7,7.8,66.1,8.3,66.1C8.3,66.1,8.3,66.1,8.3,66.1z"/>
			<path d="M3.7,61.2c4.1,0.2,8.3,0.5,12.4,0.7c0.5,0,0.9-0.3,0.9-0.7c0-0.4-0.3-0.7-0.8-0.8c-4.1-0.3-8.3-0.5-12.4-0.8
				c-0.5,0-0.9,0.3-0.9,0.7C2.9,60.8,3.2,61.2,3.7,61.2C3.7,61.2,3.7,61.2,3.7,61.2z"/>
			<path d="M2.8,56.3c2.7,0.2,5.4,0.5,8.1,0.7c0.5,0,0.9-0.3,0.9-0.7c0-0.4-0.3-0.8-0.8-0.8c-2.7-0.3-5.4-0.5-8.1-0.8
				c-0.5,0-0.9,0.3-0.9,0.7C2,55.9,2.3,56.2,2.8,56.3C2.8,56.3,2.8,56.3,2.8,56.3z"/>
		</g>
		<g>
			<path d="M16.5,28.2c3,0.8,6.1,1.6,9.1,2.5c0.5,0.1,0.9-0.1,1-0.5c0.1-0.4-0.2-0.8-0.6-0.9c-3-0.8-6.1-1.7-9.1-2.5
				c-0.4-0.1-0.9,0.1-1,0.5C15.8,27.7,16.1,28.1,16.5,28.2C16.5,28.2,16.5,28.2,16.5,28.2z"/>
			<path d="M10.6,31.6c4.3,1,8.6,2.1,12.9,3.1c0.5,0.1,0.9-0.1,1-0.5c0.1-0.4-0.2-0.8-0.7-0.9c-4.3-1.1-8.6-2.1-12.9-3.2
				c-0.5-0.1-0.9,0.1-1,0.5C9.8,31,10.1,31.5,10.6,31.6C10.6,31.6,10.6,31.6,10.6,31.6z"/>
			<path d="M7.1,35.7c4,0.9,8.1,1.7,12.1,2.6c0.5,0.1,0.9-0.1,1-0.5c0.1-0.4-0.2-0.8-0.7-0.9c-4-0.9-8.1-1.8-12.1-2.7
				c-0.5-0.1-0.9,0.2-1,0.6C6.3,35.2,6.6,35.6,7.1,35.7C7.1,35.7,7.1,35.7,7.1,35.7z"/>
			<path d="M4.9,40.2c2.7,0.5,5.3,1,8,1.5c0.5,0.1,0.9-0.2,1-0.6c0.1-0.4-0.2-0.8-0.7-0.9c-2.7-0.5-5.3-1-8-1.5
				c-0.5-0.1-0.9,0.2-1,0.6C4.2,39.7,4.5,40.1,4.9,40.2C4.9,40.2,4.9,40.2,4.9,40.2z"/>
		</g>
	</g>
</g>
<g>
	<g>
		<path class="st2" d="M38.9,71.3C40.2,53,19.9,54.1,17.9,40c0.4,2.1,0.7,4.2,1,6.3c1,14.2,21.4,14.5,18.8,32.6
			C38.2,76.4,38.6,73.8,38.9,71.3C38.9,71.3,38.9,71.3,38.9,71.3z"/>
		<path class="st4" d="M37.7,78.9C33.4,96.8,14.4,89.6,8,102.7c1.1-1.9,2-3.9,2.9-5.8c5.4-13.4,24.8-7.5,27.9-25.6
			C38.6,73.8,38.2,76.4,37.7,78.9C37.7,78.9,37.7,78.9,37.7,78.9z"/>
		<path class="st4" d="M29.2,9.8c7,17.3-12.7,22.4-10.3,36.5c-0.3-2.1-0.6-4.2-1-6.3c-3.4-13.9,15.9-20.4,7.7-37.2
			C26.9,5.1,28.1,7.4,29.2,9.8C29.2,9.8,29.2,9.8,29.2,9.8z"/>
	</g>
</g>
<path class="st1" d="M70.8,193.9c0-14.2-20.1-13.8-20.1-28v6.1c0,14.2,20.1,13.8,20.1,28C70.8,200.1,70.8,193.9,70.8,193.9z"/>
<path class="st2" d="M70.8,180.5c0-14.2-20.1-13.8-20.1-28v6.1c0,14.2,20.1,13.8,20.1,28C70.8,186.6,70.8,180.5,70.8,180.5z"/>
<path class="st3" d="M70.8,144.1c0,14.2-20.1,13.8-20.1,28v-6.1c0-14.2,20.1-13.8,20.1-28V144.1z"/>
<path class="st1" d="M70.8,137.9c0-14.2-20.1-13.8-20.1-28v6.1c0,14.2,20.1,13.8,20.1,28C70.8,144.1,70.8,137.9,70.8,137.9z"/>
<path class="st2" d="M70.8,124.5c0-14.2-20.1-13.8-20.1-28v6.1c0,14.2,20.1,13.8,20.1,28V124.5L70.8,124.5z"/>
<path class="st3" d="M70.8,88.1c0,14.2-20.1,13.8-20.1,28v-6.1c0-14.2,20.1-13.8,20.1-28V88.1L70.8,88.1z"/>
<g>
	<path d="M63.5,182.8h6.2c0.5,0,0.8-0.3,0.8-0.7c0-0.4-0.4-0.7-0.8-0.7h-6.2c-0.5,0-0.8,0.3-0.8,0.7
		C62.7,182.5,63.1,182.8,63.5,182.8z"/>
	<path d="M57.7,178.6h11c0.5,0,0.8-0.3,0.8-0.7c0-0.4-0.4-0.7-0.8-0.7h-11c-0.5,0-0.8,0.3-0.8,0.7C56.8,178.3,57.2,178.6,57.7,178.6
		z"/>
	<path d="M52.9,174.3h12.4c0.5,0,0.9-0.3,0.9-0.7c0-0.4-0.4-0.7-0.9-0.7H52.9c-0.5,0-0.8,0.3-0.8,0.7C52,174,52.4,174.3,52.9,174.3z
		"/>
	<path d="M51.6,170.1h8.1c0.5,0,0.9-0.3,0.9-0.7c0-0.4-0.4-0.7-0.9-0.7h-8.1c-0.5,0-0.8,0.3-0.8,0.7
		C50.8,169.8,51.1,170.1,51.6,170.1z"/>
</g>
<g>
	<path d="M60.3,143.1h9.4c0.5,0,0.8-0.3,0.8-0.7c0-0.4-0.4-0.7-0.8-0.7h-9.4c-0.5,0-0.8,0.3-0.8,0.7
		C59.5,142.8,59.9,143.1,60.3,143.1z"/>
	<path d="M55.4,147.4h13.3c0.5,0,0.8-0.3,0.8-0.7c0-0.4-0.4-0.7-0.8-0.7H55.4c-0.5,0-0.8,0.3-0.8,0.7
		C54.5,147.1,54.9,147.4,55.4,147.4z"/>
	<path d="M52.9,151.6h12.4c0.5,0,0.9-0.3,0.9-0.7s-0.4-0.7-0.9-0.7H52.9c-0.5,0-0.8,0.3-0.8,0.7C52,151.3,52.4,151.6,52.9,151.6z"/>
	<path d="M51.6,155.8h8.1c0.5,0,0.9-0.3,0.9-0.7c0-0.4-0.4-0.7-0.9-0.7h-8.1c-0.5,0-0.8,0.3-0.8,0.7
		C50.8,155.5,51.1,155.8,51.6,155.8z"/>
</g>
<g>
	<path d="M63.5,126.8h6.2c0.5,0,0.8-0.3,0.8-0.7c0-0.4-0.4-0.7-0.8-0.7h-6.2c-0.5,0-0.8,0.3-0.8,0.7
		C62.7,126.5,63.1,126.8,63.5,126.8z"/>
	<path d="M57.7,122.6h11c0.5,0,0.8-0.3,0.8-0.7c0-0.4-0.4-0.7-0.8-0.7h-11c-0.5,0-0.8,0.3-0.8,0.7C56.8,122.2,57.2,122.6,57.7,122.6
		z"/>
	<path d="M52.9,118.3h12.4c0.5,0,0.9-0.3,0.9-0.7c0-0.4-0.4-0.7-0.9-0.7H52.9c-0.5,0-0.8,0.3-0.8,0.7C52,118,52.4,118.3,52.9,118.3z
		"/>
	<path d="M51.6,114.1h8.1c0.5,0,0.9-0.3,0.9-0.7c0-0.4-0.4-0.7-0.9-0.7h-8.1c-0.5,0-0.8,0.3-0.8,0.7
		C50.8,113.8,51.1,114.1,51.6,114.1z"/>
</g>
<g>
	<path d="M60.3,87.1h9.4c0.5,0,0.8-0.3,0.8-0.7c0-0.4-0.4-0.7-0.8-0.7h-9.4c-0.5,0-0.8,0.3-0.8,0.7S59.9,87.1,60.3,87.1L60.3,87.1z"
		/>
	<path d="M55.4,91.4h13.3c0.5,0,0.8-0.3,0.8-0.7c0-0.4-0.4-0.7-0.8-0.7H55.4c-0.5,0-0.8,0.3-0.8,0.7C54.5,91,54.9,91.3,55.4,91.4
		L55.4,91.4z"/>
	<path d="M52.9,95.6h12.4c0.5,0,0.9-0.3,0.9-0.7s-0.4-0.7-0.9-0.7H52.9c-0.5,0-0.8,0.3-0.8,0.7C52,95.3,52.4,95.6,52.9,95.6
		L52.9,95.6z"/>
	<path d="M51.6,99.8h8.1c0.5,0,0.9-0.3,0.9-0.7c0-0.4-0.4-0.7-0.9-0.7h-8.1c-0.5,0-0.8,0.3-0.8,0.7C50.8,99.5,51.1,99.8,51.6,99.8
		L51.6,99.8z"/>
</g>
<g>
	<g>
		<path class="st1" d="M71.9,87.4c3.7-17.6-16.6-19.7-16.4-33.5c0.1,2.1,0.1,4.1,0,6.2c-1.1,13.7,19.1,17.2,14.3,34.6
			C70.6,92.3,71.3,89.8,71.9,87.4C71.9,87.4,71.9,87.4,71.9,87.4z"/>
		<path class="st3" d="M71.9,26.6c3.7,17.6-16.6,19.7-16.4,33.5c0.1-2.1,0.1-4.1,0-6.2c-1.1-13.7,19.1-17.2,14.3-34.6
			C70.6,21.7,71.3,24.1,71.9,26.6C71.9,26.6,71.9,26.6,71.9,26.6z"/>
		<g>
			<path d="M67.4,72.8c2.1,0.3,4.1,0.6,6.2,1c0.5,0.1,0.9-0.2,1-0.7c0.1-0.5-0.3-0.9-0.7-1c-2.1-0.3-4.1-0.6-6.2-0.9
				c-0.5-0.1-0.9,0.2-0.9,0.7C66.6,72.3,66.9,72.7,67.4,72.8C67.4,72.8,67.4,72.8,67.4,72.8z"/>
			<path d="M62.1,67.3c3.7,0.4,7.3,0.8,11,1.2c0.5,0.1,0.9-0.3,0.9-0.7c0-0.5-0.3-0.9-0.8-0.9c-3.7-0.3-7.3-0.7-11-1
				c-0.5,0-0.9,0.3-0.9,0.7C61.3,66.9,61.6,67.3,62.1,67.3C62.1,67.3,62.1,67.3,62.1,67.3z"/>
			<path d="M57.6,62.5c4.2,0.2,8.3,0.5,12.5,0.7c0.5,0,0.9-0.3,0.9-0.8c0-0.4-0.3-0.8-0.8-0.8c-4.2-0.2-8.3-0.4-12.5-0.5
				c-0.5,0-0.9,0.3-0.9,0.7C56.8,62.1,57.1,62.4,57.6,62.5C57.6,62.5,57.6,62.5,57.6,62.5z"/>
			<path d="M56.5,58.1c2.7,0,5.5,0.1,8.2,0.1c0.5,0,0.9-0.3,0.9-0.7c0-0.4-0.4-0.8-0.9-0.8c-2.7,0-5.5,0-8.2,0
				c-0.5,0-0.9,0.3-0.9,0.7C55.6,57.8,56,58.1,56.5,58.1C56.5,58.1,56.5,58.1,56.5,58.1z"/>
		</g>
	</g>
</g>
<path class="st4" d="M70.8,130.6c0,14.2-20.1,13.8-20.1,28v-6.1c0-14.2,20.1-13.8,20.1-28V130.6z"/>
<path class="st4" d="M70.8,74.6c0,14.2-20.1,13.8-20.1,28v-6.1c0-14.2,20.1-13.8,20.1-28V74.6L70.8,74.6z"/>
<g>
	<g>
		<path class="st2" d="M67.6,69.2c-5.2-13.4-25.2-9.5-25.7-29.9c-0.2,2.8-0.2,5.7,0,8.6C44.6,68.1,64.1,62.1,70.8,75
			C69.6,73.1,68.5,71.2,67.6,69.2C67.6,69.2,67.6,69.2,67.6,69.2z"/>
		<g>
			<path d="M53,28.3c3,0.7,6.1,1.3,9.1,2c0.5,0.1,0.9-0.1,1-0.5c0.1-0.4-0.2-0.8-0.6-0.9c-3-0.7-6-1.4-9.1-2.2
				c-0.4-0.1-0.9,0.2-1,0.6C52.3,27.8,52.6,28.2,53,28.3C53,28.3,53,28.3,53,28.3z"/>
			<path d="M47.2,32.8c4.3,0.6,8.7,1.2,13,1.8c0.5,0.1,0.9-0.2,0.9-0.6c0.1-0.4-0.2-0.8-0.7-0.9c-4.3-0.7-8.7-1.4-13-2.1
				c-0.5-0.1-0.9,0.3-1,0.8C46.4,32.3,46.7,32.7,47.2,32.8C47.2,32.8,47.2,32.8,47.2,32.8z"/>
			<path d="M44.1,38.2c4.1,0.3,8.2,0.5,12.3,0.8c0.5,0,0.9-0.3,0.9-0.7c0-0.4-0.3-0.8-0.8-0.8c-4.1-0.4-8.2-0.7-12.2-1.1
				c-0.5,0-0.9,0.3-0.9,0.9C43.3,37.7,43.7,38.2,44.1,38.2C44.1,38.2,44.1,38.2,44.1,38.2z"/>
			<path d="M42.7,43.9c2.7,0,5.4,0,8.1,0c0.5,0,0.8-0.4,0.8-0.8c0-0.5-0.4-0.8-0.8-0.9c-2.7,0-5.4-0.1-8.1-0.1
				c-0.5,0-0.8,0.4-0.9,0.9C41.9,43.5,42.2,43.9,42.7,43.9C42.7,43.9,42.7,43.9,42.7,43.9z"/>
		</g>
		<path class="st4" d="M67.6,17.9c-5.2,13.4-25.2,9.5-25.7,29.9c-0.2-2.8-0.2-5.7,0-8.6C44.6,19,64.1,25,70.8,12.1
			C69.6,14,68.5,16,67.6,17.9C67.6,17.9,67.6,17.9,67.6,17.9z"/>
	</g>
</g>
</svg>
